<?xml version="1.0" encoding="UTF-8"?>
<svg version="1.1" xmlns="http://www.w3.org/2000/svg" width="500" height="500">
<path d="M0 0 C165 0 330 0 500 0 C500 165 500 330 500 500 C335 500 170 500 0 500 C0 335 0 170 0 0 Z " fill="#3B8EDC" transform="translate(0,0)"/>
<path d="M0 0 C165 0 330 0 500 0 C500 165 500 330 500 500 C335 500 170 500 0 500 C0 335 0 170 0 0 Z M215 22 C214.29858887 22.11214844 213.59717773 22.22429688 212.87451172 22.33984375 C196.91254993 24.94194469 180.88439502 29.70487362 166 36 C165.37818848 36.25894043 164.75637695 36.51788086 164.11572266 36.78466797 C127.93337312 51.89814389 95.14152418 75.93617499 71 107 C70.17757812 108.02867188 69.35515625 109.05734375 68.5078125 110.1171875 C62.72412571 117.40568963 57.68625986 124.94807015 53 133 C52.6405127 133.60682617 52.28102539 134.21365234 51.91064453 134.83886719 C44.54362 147.29728872 37.26332391 160.5529693 33.66796875 174.6640625 C33 177 33 177 31.578125 180.66796875 C29.83461056 185.25633267 28.67300394 189.91196655 27.5625 194.6875 C27.37107422 195.47705078 27.17964844 196.26660156 26.98242188 197.08007812 C26.28239521 200.04556325 25.641999 203.0213843 25 206 C24.83659119 206.70698029 24.67318237 207.41396057 24.50482178 208.1423645 C21.34547284 221.9182789 20.36912865 235.15686427 20.47851562 249.27514648 C20.50000808 252.5637358 20.47855489 255.85014699 20.453125 259.13867188 C20.43799896 271.87057095 21.60759608 283.66213215 24.56257629 296.0453949 C25.15642886 298.69899423 25.53108158 301.36644741 25.875 304.0625 C27.24226338 312.61697091 30.2330379 320.81578232 33 329 C33.23154785 329.68513672 33.4630957 330.37027344 33.70166016 331.07617188 C40.62573439 351.37316292 50.46468011 370.59291493 63 388 C63.47050781 388.65838867 63.94101562 389.31677734 64.42578125 389.99511719 C71.06389017 399.2297951 78.07296351 407.84130339 86 416 C86.77561279 416.80630859 86.77561279 416.80630859 87.56689453 417.62890625 C94.64390036 424.96329642 101.9149787 431.76659809 110 438 C110.97839844 438.76054687 111.95679687 439.52109375 112.96484375 440.3046875 C125.84107894 450.14829587 139.59770466 458.01866921 154.15625 465.08203125 C155.46502237 465.73364461 156.75542481 466.42274735 158.03125 467.13671875 C165.1716175 471.01256892 172.69935045 473.23265028 180.4375 475.58203125 C183.99890512 476.66805614 187.46841844 477.89362945 190.9375 479.25 C196.54158019 481.32274199 202.09747319 482.18409997 208 483 C209.62266056 483.24827593 211.24503495 483.49842625 212.8671875 483.75 C223.57731986 485.38511966 234.15995077 486.65992002 245 487 C246.04510742 487.03287109 246.04510742 487.03287109 247.11132812 487.06640625 C266.01635178 487.57324335 284.93820845 486.27647719 303.5 482.625 C305.01134521 482.3297644 305.01134521 482.3297644 306.55322266 482.02856445 C312.23296095 480.83145331 317.41738605 479.16641077 322.76220703 476.91015625 C325.67722027 475.72456064 328.63706391 474.949171 331.6875 474.1875 C339.57253273 471.98308225 346.72663148 468.68374533 354 465 C354.83047852 464.58266602 355.66095703 464.16533203 356.51660156 463.73535156 C367.09421126 458.39448775 377.4002596 452.98290154 387 446 C387.96679688 445.30519531 388.93359375 444.61039062 389.9296875 443.89453125 C407.79619539 430.78469104 424.55971588 415.6924094 438 398 C438.50015625 397.36707031 439.0003125 396.73414063 439.515625 396.08203125 C448.51789061 384.48295825 456.01389269 371.94072206 462.921875 359.01416016 C463.85163086 357.2771842 464.79915807 355.54974216 465.75 353.82421875 C469.60993266 346.5566893 472.13599677 339.0197906 474.60546875 331.19921875 C475.4705173 328.48699194 476.42954684 326.01863431 477.578125 323.39453125 C479.03250067 319.92240911 479.84196968 316.68911522 480.5625 313 C481.24436679 309.54829014 481.94266936 306.19047813 482.95703125 302.8203125 C494.92280029 258.99064165 488.89625393 208.53041604 472 167 C471.29423828 165.21142578 471.29423828 165.21142578 470.57421875 163.38671875 C455.68829341 127.03151517 430.85611401 94.29187295 400 70 C399.04867188 69.22011719 398.09734375 68.44023438 397.1171875 67.63671875 C383.06692301 56.37135323 367.24851723 47.66721077 351 40 C350.17628906 39.60425781 349.35257812 39.20851563 348.50390625 38.80078125 C342.8852399 36.19248293 337.05627373 34.19792272 331.2109375 32.16015625 C328 31 328 31 324.5 29.375 C320.02298302 27.6161719 315.50795998 26.7552788 310.79296875 25.84375 C307.85066522 25.1892314 305.10487002 24.42273952 302.2421875 23.51171875 C275.31101259 15.2959448 242.42498088 17.39352451 215 22 Z " fill="#F3F8FC" transform="translate(0,0)"/>
<path d="M0 0 C0.61955566 0.24637207 1.23911133 0.49274414 1.87744141 0.74658203 C19.07396095 7.86475705 33.19113138 21.59588133 40.9765625 38.51953125 C45.37375464 49.17684807 47.18083872 57.79514717 47.1875 69.3125 C47.19974609 70.41529297 47.21199219 71.51808594 47.22460938 72.65429688 C47.23566555 78.82732997 46.78014483 84.09044859 45 90 C44.835 90.7940625 44.67 91.588125 44.5 92.40625 C40.42028647 109.49005041 26.45369162 124.90752824 12 134 C8.09204276 136.24601347 4.11676044 138.16860908 0 140 C-0.98742187 140.48855469 -1.97484375 140.97710937 -2.9921875 141.48046875 C-17.89109456 147.98280349 -38.11243103 147.14160023 -53.25 141.5 C-54.12398437 141.14421875 -54.12398437 141.14421875 -55.015625 140.78125 C-68.64634392 135.41482523 -80.59651073 138.65561719 -94 143 C-94.66 143.33 -95.32 143.66 -96 144 C-97.99960012 144.039992 -100.00047242 144.04346799 -102 144 C-101.1236427 138.55873678 -99.84194694 133.39274069 -98.06884766 128.18212891 C-94.51197782 117.63667316 -93.17745654 108.9056102 -97.9140625 98.44140625 C-99.03073397 95.93090384 -99.886986 93.43992963 -100.6875 90.8125 C-100.91824219 90.05582031 -101.14898437 89.29914063 -101.38671875 88.51953125 C-106.3212058 68.24727554 -102.62383391 47.73394843 -92 30 C-89.24807917 25.81791076 -86.35007771 21.72534099 -83 18 C-82.34 18 -81.68 18 -81 18 C-80.77054688 17.41992188 -80.54109375 16.83984375 -80.3046875 16.2421875 C-75.62046905 8.19206358 -64.12614769 3.74060767 -56 0 C-54.824375 -0.5775 -53.64875 -1.155 -52.4375 -1.75 C-35.63160419 -7.86123484 -16.41577947 -6.56217162 0 0 Z " fill="#3B8BD7" transform="translate(282,183)"/>
<path d="M0 0 C3.62186334 3.04076366 6.97912466 6.2986845 10.30224609 9.66113281 C11.02927734 10.37785156 11.75630859 11.09457031 12.50537109 11.83300781 C28.64907962 28.73941123 35.89671398 51.55392649 35.65136719 74.59106445 C34.89382721 100.02534042 24.47497512 122.45914487 6.34838867 140.20556641 C-3.34576547 149.2352306 -14.44292396 154.88754005 -26.69775391 159.66113281 C-27.54595703 160.01046875 -28.39416016 160.35980469 -29.26806641 160.71972656 C-48.17176773 168.04415103 -71.01857327 166.54160793 -89.51025391 158.91113281 C-99.46141408 154.96415823 -106.94804188 158.17350166 -116.73291016 161.40722656 C-132.83472785 166.63051864 -132.83472785 166.63051864 -139.88525391 163.03613281 C-147.15597699 156.8964111 -147.15597699 156.8964111 -148.28759766 152.22753906 C-148.99148652 142.92879668 -145.68999936 134.68279874 -142.54467773 126.06396484 C-142.18269287 125.06606934 -141.82070801 124.06817383 -141.44775391 123.04003906 C-141.11259766 122.14873291 -140.77744141 121.25742676 -140.43212891 120.33911133 C-139.11705312 115.54354407 -139.37366893 111.69887 -141.44775391 107.22363281 C-149.08260295 88.65458924 -151.71300328 64.91466395 -144.69775391 45.66113281 C-144.19888672 44.20707031 -144.19888672 44.20707031 -143.68994141 42.72363281 C-134.45689545 17.41346488 -117.04608655 -0.89488533 -92.69775391 -12.33886719 C-63.06869253 -25.85170271 -25.35208637 -19.99293093 0 0 Z M-100.69775391 11.66113281 C-101.96232422 12.58539063 -101.96232422 12.58539063 -103.25244141 13.52832031 C-106.56178597 15.99009893 -106.56178597 15.99009893 -109.69775391 18.66113281 C-109.69775391 19.32113281 -109.69775391 19.98113281 -109.69775391 20.66113281 C-110.35775391 20.66113281 -111.01775391 20.66113281 -111.69775391 20.66113281 C-126.07599032 38.14258572 -133.0598955 56.80077466 -131.92163086 79.41479492 C-131.36825617 84.96724909 -129.87789376 90.39547443 -128.26025391 95.72363281 C-128.00759766 96.5628125 -127.75494141 97.40199219 -127.49462891 98.26660156 C-126.7753919 100.42783826 -125.92464357 102.45287711 -125.01025391 104.53613281 C-121.02547377 115.37644867 -124.88344799 125.68772269 -128.28759766 136.12207031 C-129.41904944 139.61534645 -130.22775387 143.00822112 -130.69775391 146.66113281 C-125.48678151 146.97967188 -121.43489491 145.86088437 -116.57275391 144.22363281 C-102.07230649 139.47440371 -90.47606978 139.61854133 -76.19775391 145.73144531 C-61.38403903 151.24029553 -42.01234207 148.9720656 -27.87353516 142.71582031 C-13.07532107 135.61186799 -1.76214698 126.41400506 7.30224609 112.66113281 C7.85912109 111.83613281 8.41599609 111.01113281 8.98974609 110.16113281 C18.90916156 94.68684468 20.57721684 75.31867744 17.96972656 57.37255859 C17.15081616 53.62910374 15.84210913 50.16033883 14.30224609 46.66113281 C13.99029297 45.86320312 13.67833984 45.06527344 13.35693359 44.24316406 C5.90365203 26.04838848 -7.60025876 12.37184941 -25.36572266 4.04785156 C-50.64666204 -6.47352415 -78.2093681 -5.02379859 -100.69775391 11.66113281 Z " fill="#FAFCFD" transform="translate(310.69775390625,180.3388671875)"/>
<path d="M0 0 C0.66 0.33 1.32 0.66 2 1 C-1.96 4.96 -5.92 8.92 -10 13 C-10.66 12.67 -11.32 12.34 -12 12 C-10.71937515 10.2925002 -9.38232443 8.62626404 -8 7 C-7.34 7 -6.68 7 -6 7 C-5.7525 6.401875 -5.505 5.80375 -5.25 5.1875 C-3.83629988 2.71352479 -2.34944617 1.56629745 0 0 Z " fill="#5798D4" transform="translate(207,194)"/>
</svg>
